<?xml version="1.0" encoding="UTF-8" standalone="no"?>
<!DOCTYPE svg PUBLIC "-//W3C//DTD SVG 1.0//EN"
 "http://www.w3.org/TR/2001/REC-SVG-20010904/DTD/svg10.dtd">
<!-- Generated by neato version 1.13 (v16) (Mon August 23, 2004)
     For user: (chris) Chris Eidhof   Title: ER    Pages: 1 -->
<svg width="326pt" height="516pt"
 viewBox = "-1 -1 325 515"
 xmlns="http://www.w3.org/2000/svg">
<g id="graph0" class="graph" style="font-family:Times-Roman;font-size:14.00;">
<title>ER</title>
<g id="node1" class="node"><title>compiler</title>
<polygon style="fill:none;stroke:black;" points="205,236 141,236 141,272 205,272 205,236"/>
<text text-anchor="middle" x="173" y="259">compiler</text>
</g>
<g id="node12" class="node"><title>contributes</title>
<polygon style="fill:lightgrey;stroke:lightgrey;" points="152,151 91,175 152,199 213,175 152,151"/>
<text text-anchor="middle" x="152" y="180">contributes</text>
</g>
<g id="edge18" class="edge"><title>compiler--contributes</title>
<path style="fill:none;stroke:black;" d="M168,236C165,223 161,210 158,197"/>
<text text-anchor="middle" x="184" y="220">*</text>
</g>
<g id="node13" class="node"><title>releases</title>
<polygon style="fill:lightgrey;stroke:lightgrey;" points="191,309 142,333 191,357 240,333 191,309"/>
<text text-anchor="middle" x="191" y="338">releases</text>
</g>
<g id="edge22" class="edge"><title>compiler--releases</title>
<path style="fill:none;stroke:black;" d="M177,272C180,285 183,298 186,311"/>
<text text-anchor="middle" x="204" y="299">1</text>
</g>
<g id="node2" class="node"><title>person</title>
<polygon style="fill:none;stroke:black;" points="155,80 101,80 101,116 155,116 155,80"/>
<text text-anchor="middle" x="128" y="103">person</text>
</g>
<g id="node3" class="node"><title>release</title>
<polygon style="fill:none;stroke:black;" points="234,395 182,395 182,431 234,431 234,395"/>
<text text-anchor="middle" x="208" y="418">release</text>
</g>
<g id="node4" class="node"><title>name</title>
<ellipse cx="92" cy="274" rx="28" ry="18" style="fill:none;stroke:black;"/>
<text text-anchor="middle" x="92" y="279">name</text>
</g>
<g id="edge2" class="edge"><title>name--compiler</title>
<path style="fill:none;stroke:black;" d="M118,268C125,266 133,264 140,262"/>
</g>
<g id="node5" class="node"><title>homepage</title>
<ellipse cx="254" cy="233" rx="41" ry="18" style="fill:none;stroke:black;"/>
<text text-anchor="middle" x="254" y="238">homepage</text>
</g>
<g id="edge4" class="edge"><title>homepage--compiler</title>
<path style="fill:none;stroke:black;" d="M219,242C215,243 210,244 206,245"/>
</g>
<g id="node6" class="node"><title>firstName</title>
<ellipse cx="106" cy="23" rx="40" ry="18" style="fill:none;stroke:black;"/>
<text text-anchor="middle" x="106" y="28">firstName</text>
</g>
<g id="edge6" class="edge"><title>firstName--person</title>
<path style="fill:none;stroke:black;" d="M111,41C115,54 119,67 123,80"/>
</g>
<g id="node7" class="node"><title>lastName</title>
<ellipse cx="45" cy="89" rx="38" ry="18" style="fill:none;stroke:black;"/>
<text text-anchor="middle" x="45" y="94">lastName</text>
</g>
<g id="edge8" class="edge"><title>lastName--person</title>
<path style="fill:none;stroke:black;" d="M83,93C89,94 95,94 101,95"/>
</g>
<g id="node8" class="node"><title>email</title>
<ellipse cx="195" cy="46" rx="28" ry="18" style="fill:none;stroke:black;"/>
<text text-anchor="middle" x="195" y="51">email</text>
</g>
<g id="edge10" class="edge"><title>email--person</title>
<path style="fill:none;stroke:black;" d="M177,60C169,67 160,73 152,80"/>
</g>
<g id="node9" class="node"><title>title</title>
<ellipse cx="138" cy="460" rx="27" ry="18" style="fill:none;stroke:black;"/>
<text text-anchor="middle" x="138" y="465">title</text>
</g>
<g id="edge12" class="edge"><title>title--release</title>
<path style="fill:none;stroke:black;" d="M157,447C165,442 173,436 181,431"/>
</g>
<g id="node10" class="node"><title>date</title>
<ellipse cx="224" cy="489" rx="27" ry="18" style="fill:none;stroke:black;"/>
<text text-anchor="middle" x="224" y="494">date</text>
</g>
<g id="edge14" class="edge"><title>date--release</title>
<path style="fill:none;stroke:black;" d="M220,471C217,458 215,444 212,431"/>
</g>
<g id="node11" class="node"><title>notes</title>
<ellipse cx="291" cy="426" rx="27" ry="18" style="fill:none;stroke:black;"/>
<text text-anchor="middle" x="291" y="431">notes</text>
</g>
<g id="edge16" class="edge"><title>notes--release</title>
<path style="fill:none;stroke:black;" d="M265,422C255,420 245,419 235,417"/>
</g>
<g id="edge20" class="edge"><title>contributes--person</title>
<path style="fill:none;stroke:black;" d="M145,154C142,141 138,128 134,116"/>
<text text-anchor="middle" x="162" y="142">*</text>
</g>
<g id="edge24" class="edge"><title>releases--release</title>
<path style="fill:none;stroke:black;" d="M196,355C199,368 202,382 204,395"/>
<text text-anchor="middle" x="221" y="378">*</text>
</g>
</g>
</svg>
